<mxfile host="app.diagrams.net" modified="2022-03-13T17:00:05.257Z" agent="5.0 (Windows NT 10.0; Win64; x64) AppleWebKit/537.36 (KHTML, like Gecko) Chrome/96.0.4664.174 YaBrowser/22.1.5.810 Yowser/2.5 Safari/537.36" etag="yCxNOAdTD2BzbstfBtEJ" version="17.1.2" type="github">
  <diagram id="fKbLDI4m6s5YDFdav7tx" name="Page-1">
    <mxGraphModel dx="1038" dy="551" grid="1" gridSize="10" guides="1" tooltips="1" connect="1" arrows="1" fold="1" page="1" pageScale="1" pageWidth="827" pageHeight="1169" math="0" shadow="0">
      <root>
        <mxCell id="0" />
        <mxCell id="1" parent="0" />
        <mxCell id="ujUgzbwZOeXTwSPeFmDn-3" value="" style="edgeStyle=orthogonalEdgeStyle;rounded=0;orthogonalLoop=1;jettySize=auto;html=1;entryX=0.75;entryY=1;entryDx=0;entryDy=0;" parent="1" source="ujUgzbwZOeXTwSPeFmDn-1" target="ujUgzbwZOeXTwSPeFmDn-2" edge="1">
          <mxGeometry relative="1" as="geometry" />
        </mxCell>
        <mxCell id="ujUgzbwZOeXTwSPeFmDn-6" value="" style="edgeStyle=orthogonalEdgeStyle;rounded=0;orthogonalLoop=1;jettySize=auto;html=1;entryX=0.75;entryY=0;entryDx=0;entryDy=0;" parent="1" source="ujUgzbwZOeXTwSPeFmDn-1" target="ujUgzbwZOeXTwSPeFmDn-5" edge="1">
          <mxGeometry relative="1" as="geometry" />
        </mxCell>
        <mxCell id="ujUgzbwZOeXTwSPeFmDn-1" value="Глобальная система управления" style="rounded=1;whiteSpace=wrap;html=1;fillColor=#fff2cc;strokeColor=#d6b656;" parent="1" vertex="1">
          <mxGeometry x="640" y="210" width="120" height="60" as="geometry" />
        </mxCell>
        <mxCell id="tT43miHSmSe1ald3xXMh-8" style="edgeStyle=orthogonalEdgeStyle;rounded=0;orthogonalLoop=1;jettySize=auto;html=1;exitX=0.25;exitY=1;exitDx=0;exitDy=0;entryX=1;entryY=0.5;entryDx=0;entryDy=0;" edge="1" parent="1" source="ujUgzbwZOeXTwSPeFmDn-2" target="tT43miHSmSe1ald3xXMh-7">
          <mxGeometry relative="1" as="geometry" />
        </mxCell>
        <mxCell id="ujUgzbwZOeXTwSPeFmDn-2" value="Система управления манипулятором" style="whiteSpace=wrap;html=1;fillColor=#fff2cc;strokeColor=#d6b656;rounded=1;" parent="1" vertex="1">
          <mxGeometry x="460" y="70" width="120" height="60" as="geometry" />
        </mxCell>
        <mxCell id="tT43miHSmSe1ald3xXMh-20" style="edgeStyle=orthogonalEdgeStyle;rounded=0;orthogonalLoop=1;jettySize=auto;html=1;exitX=0;exitY=0.5;exitDx=0;exitDy=0;entryX=1;entryY=0.5;entryDx=0;entryDy=0;" edge="1" parent="1" source="ujUgzbwZOeXTwSPeFmDn-5" target="tT43miHSmSe1ald3xXMh-18">
          <mxGeometry relative="1" as="geometry" />
        </mxCell>
        <mxCell id="ujUgzbwZOeXTwSPeFmDn-5" value="Система управления передвижением" style="whiteSpace=wrap;html=1;fillColor=#fff2cc;strokeColor=#d6b656;rounded=1;" parent="1" vertex="1">
          <mxGeometry x="460" y="420" width="120" height="60" as="geometry" />
        </mxCell>
        <mxCell id="tT43miHSmSe1ald3xXMh-5" style="edgeStyle=orthogonalEdgeStyle;rounded=0;orthogonalLoop=1;jettySize=auto;html=1;exitX=1;exitY=0.5;exitDx=0;exitDy=0;entryX=0;entryY=0.25;entryDx=0;entryDy=0;" edge="1" parent="1" source="tT43miHSmSe1ald3xXMh-1" target="ujUgzbwZOeXTwSPeFmDn-2">
          <mxGeometry relative="1" as="geometry" />
        </mxCell>
        <mxCell id="tT43miHSmSe1ald3xXMh-1" value="Камера" style="rounded=1;whiteSpace=wrap;html=1;fillColor=#dae8fc;strokeColor=#6c8ebf;" vertex="1" parent="1">
          <mxGeometry x="260" y="20" width="120" height="60" as="geometry" />
        </mxCell>
        <mxCell id="tT43miHSmSe1ald3xXMh-6" style="edgeStyle=orthogonalEdgeStyle;rounded=0;orthogonalLoop=1;jettySize=auto;html=1;exitX=1;exitY=0.5;exitDx=0;exitDy=0;entryX=0;entryY=0.75;entryDx=0;entryDy=0;" edge="1" parent="1" source="tT43miHSmSe1ald3xXMh-2" target="ujUgzbwZOeXTwSPeFmDn-2">
          <mxGeometry relative="1" as="geometry" />
        </mxCell>
        <mxCell id="tT43miHSmSe1ald3xXMh-2" value="Лазерный дальномер" style="rounded=1;whiteSpace=wrap;html=1;fillColor=#dae8fc;strokeColor=#6c8ebf;" vertex="1" parent="1">
          <mxGeometry x="260" y="110" width="120" height="60" as="geometry" />
        </mxCell>
        <mxCell id="tT43miHSmSe1ald3xXMh-11" style="edgeStyle=orthogonalEdgeStyle;rounded=0;orthogonalLoop=1;jettySize=auto;html=1;exitX=0;exitY=0.5;exitDx=0;exitDy=0;entryX=1;entryY=0.5;entryDx=0;entryDy=0;" edge="1" parent="1" source="tT43miHSmSe1ald3xXMh-7" target="tT43miHSmSe1ald3xXMh-9">
          <mxGeometry relative="1" as="geometry" />
        </mxCell>
        <mxCell id="tT43miHSmSe1ald3xXMh-7" value="Драйверы двигателей" style="rounded=1;whiteSpace=wrap;html=1;fillColor=#f8cecc;strokeColor=#b85450;" vertex="1" parent="1">
          <mxGeometry x="260" y="210" width="120" height="60" as="geometry" />
        </mxCell>
        <mxCell id="tT43miHSmSe1ald3xXMh-13" style="edgeStyle=orthogonalEdgeStyle;rounded=0;orthogonalLoop=1;jettySize=auto;html=1;exitX=0.5;exitY=1;exitDx=0;exitDy=0;entryX=0.5;entryY=0;entryDx=0;entryDy=0;" edge="1" parent="1" source="tT43miHSmSe1ald3xXMh-9" target="tT43miHSmSe1ald3xXMh-12">
          <mxGeometry relative="1" as="geometry" />
        </mxCell>
        <mxCell id="tT43miHSmSe1ald3xXMh-9" value="Двигатели постоянного тока" style="rounded=1;whiteSpace=wrap;html=1;fillColor=#e1d5e7;strokeColor=#9673a6;" vertex="1" parent="1">
          <mxGeometry x="90" y="210" width="120" height="60" as="geometry" />
        </mxCell>
        <mxCell id="tT43miHSmSe1ald3xXMh-14" style="edgeStyle=orthogonalEdgeStyle;rounded=0;orthogonalLoop=1;jettySize=auto;html=1;exitX=1;exitY=0.5;exitDx=0;exitDy=0;entryX=0.5;entryY=1;entryDx=0;entryDy=0;" edge="1" parent="1" source="tT43miHSmSe1ald3xXMh-12" target="ujUgzbwZOeXTwSPeFmDn-2">
          <mxGeometry relative="1" as="geometry" />
        </mxCell>
        <mxCell id="tT43miHSmSe1ald3xXMh-12" value="Датчики энкодеры" style="rounded=1;whiteSpace=wrap;html=1;fillColor=#dae8fc;strokeColor=#6c8ebf;" vertex="1" parent="1">
          <mxGeometry x="90" y="300" width="120" height="60" as="geometry" />
        </mxCell>
        <mxCell id="tT43miHSmSe1ald3xXMh-15" value="" style="swimlane;startSize=0;" vertex="1" parent="1">
          <mxGeometry x="80" y="200" width="320" height="190" as="geometry">
            <mxRectangle x="80" y="200" width="50" height="40" as="alternateBounds" />
          </mxGeometry>
        </mxCell>
        <mxCell id="tT43miHSmSe1ald3xXMh-16" value="Привод манипулятора" style="text;html=1;align=center;verticalAlign=middle;resizable=0;points=[];autosize=1;strokeColor=none;fillColor=none;" vertex="1" parent="tT43miHSmSe1ald3xXMh-15">
          <mxGeometry x="160" y="160" width="140" height="20" as="geometry" />
        </mxCell>
        <mxCell id="tT43miHSmSe1ald3xXMh-21" style="edgeStyle=orthogonalEdgeStyle;rounded=0;orthogonalLoop=1;jettySize=auto;html=1;exitX=0;exitY=0.5;exitDx=0;exitDy=0;entryX=1;entryY=0.5;entryDx=0;entryDy=0;" edge="1" parent="1" source="tT43miHSmSe1ald3xXMh-18" target="tT43miHSmSe1ald3xXMh-19">
          <mxGeometry relative="1" as="geometry" />
        </mxCell>
        <mxCell id="tT43miHSmSe1ald3xXMh-18" value="Драйверы двигателей" style="rounded=1;whiteSpace=wrap;html=1;fillColor=#f8cecc;strokeColor=#b85450;" vertex="1" parent="1">
          <mxGeometry x="260" y="420" width="120" height="60" as="geometry" />
        </mxCell>
        <mxCell id="tT43miHSmSe1ald3xXMh-19" value="Двигатели постоянного тока" style="rounded=1;whiteSpace=wrap;html=1;fillColor=#e1d5e7;strokeColor=#9673a6;" vertex="1" parent="1">
          <mxGeometry x="90" y="420" width="120" height="60" as="geometry" />
        </mxCell>
        <mxCell id="tT43miHSmSe1ald3xXMh-22" value="" style="swimlane;startSize=0;" vertex="1" parent="1">
          <mxGeometry x="80" y="410" width="320" height="110" as="geometry">
            <mxRectangle x="80" y="200" width="50" height="40" as="alternateBounds" />
          </mxGeometry>
        </mxCell>
        <mxCell id="tT43miHSmSe1ald3xXMh-23" value="Привод продольного перемещения" style="text;html=1;align=center;verticalAlign=middle;resizable=0;points=[];autosize=1;strokeColor=none;fillColor=none;" vertex="1" parent="tT43miHSmSe1ald3xXMh-22">
          <mxGeometry x="90" y="80" width="210" height="20" as="geometry" />
        </mxCell>
      </root>
    </mxGraphModel>
  </diagram>
</mxfile>
